<svg width="20" height="17" viewBox="0 0 20 17" fill="none" xmlns="http://www.w3.org/2000/svg">
<path d="M9.08325 15.4421H8.62492C5.17917 15.4421 3.45675 15.4421 2.30634 14.5346C2.12351 14.3897 1.9536 14.2293 1.7985 14.0551C0.833252 12.9735 0.833252 11.351 0.833252 8.10872C0.833252 4.86647 0.833252 3.24489 1.7985 2.16231C1.95311 1.98875 2.12239 1.82925 2.30634 1.68381C3.45675 0.775391 5.17917 0.775391 8.62492 0.775391H11.3749C14.8207 0.775391 16.5431 0.77539 17.6926 1.68289C17.8771 1.82956 18.0467 1.98936 18.2013 2.16231C19.0713 3.13764 19.1574 4.55022 19.1666 7.19206M0.833252 5.35872H19.1666M11.8333 13.6087C11.8333 13.6087 12.7499 13.6087 13.6666 15.4421C13.6666 15.4421 16.5788 10.8587 19.1666 9.94206" stroke="white" stroke-width="1.5" stroke-linecap="round" stroke-linejoin="round"/>
</svg>
