<svg width="22" height="22" viewBox="0 0 22 22" fill="none" xmlns="http://www.w3.org/2000/svg">
<path d="M20.4941 8.47852C20.126 8.09375 19.7451 7.69727 19.6016 7.34863C19.4688 7.0293 19.4609 6.5 19.4531 5.9873C19.4385 5.03418 19.4229 3.9541 18.6719 3.20312C17.9209 2.45215 16.8408 2.43652 15.8877 2.42187C15.375 2.41406 14.8457 2.40625 14.5264 2.27344C14.1787 2.12988 13.7812 1.74902 13.3965 1.38086C12.7227 0.733398 11.957 0 10.9375 0C9.91797 0 9.15332 0.733398 8.47852 1.38086C8.09375 1.74902 7.69727 2.12988 7.34863 2.27344C7.03125 2.40625 6.5 2.41406 5.9873 2.42187C5.03418 2.43652 3.9541 2.45215 3.20312 3.20312C2.45215 3.9541 2.44141 5.03418 2.42187 5.9873C2.41406 6.5 2.40625 7.0293 2.27344 7.34863C2.12988 7.69629 1.74902 8.09375 1.38086 8.47852C0.733398 9.15234 0 9.91797 0 10.9375C0 11.957 0.733398 12.7217 1.38086 13.3965C1.74902 13.7812 2.12988 14.1777 2.27344 14.5264C2.40625 14.8457 2.41406 15.375 2.42187 15.8877C2.43652 16.8408 2.45215 17.9209 3.20312 18.6719C3.9541 19.4229 5.03418 19.4385 5.9873 19.4531C6.5 19.4609 7.0293 19.4688 7.34863 19.6016C7.69629 19.7451 8.09375 20.126 8.47852 20.4941C9.15234 21.1416 9.91797 21.875 10.9375 21.875C11.957 21.875 12.7217 21.1416 13.3965 20.4941C13.7812 20.126 14.1777 19.7451 14.5264 19.6016C14.8457 19.4688 15.375 19.4609 15.8877 19.4531C16.8408 19.4385 17.9209 19.4229 18.6719 18.6719C19.4229 17.9209 19.4385 16.8408 19.4531 15.8877C19.4609 15.375 19.4688 14.8457 19.6016 14.5264C19.7451 14.1787 20.126 13.7812 20.4941 13.3965C21.1416 12.7227 21.875 11.957 21.875 10.9375C21.875 9.91797 21.1416 9.15332 20.4941 8.47852ZM19.3662 12.3154C18.8984 12.8037 18.4141 13.3086 18.1572 13.9287C17.9111 14.5244 17.9004 15.2051 17.8906 15.8643C17.8809 16.5479 17.8701 17.2637 17.5664 17.5664C17.2627 17.8691 16.5518 17.8809 15.8643 17.8906C15.2051 17.9004 14.5244 17.9111 13.9287 18.1572C13.3086 18.4141 12.8037 18.8984 12.3154 19.3662C11.8271 19.834 11.3281 20.3125 10.9375 20.3125C10.5469 20.3125 10.0439 19.832 9.55957 19.3662C9.0752 18.9004 8.56641 18.4141 7.94629 18.1572C7.35059 17.9111 6.66992 17.9004 6.01074 17.8906C5.32715 17.8809 4.61133 17.8701 4.30859 17.5664C4.00586 17.2627 3.99414 16.5518 3.98437 15.8643C3.97461 15.2051 3.96387 14.5244 3.71777 13.9287C3.46094 13.3086 2.97656 12.8037 2.50879 12.3154C2.04102 11.8271 1.5625 11.3281 1.5625 10.9375C1.5625 10.5469 2.04297 10.0439 2.50879 9.55957C2.97461 9.0752 3.46094 8.56641 3.71777 7.94629C3.96387 7.35059 3.97461 6.66992 3.98437 6.01074C3.99414 5.32715 4.00488 4.61133 4.30859 4.30859C4.6123 4.00586 5.32324 3.99414 6.01074 3.98437C6.66992 3.97461 7.35059 3.96387 7.94629 3.71777C8.56641 3.46094 9.07129 2.97656 9.55957 2.50879C10.0479 2.04102 10.5469 1.5625 10.9375 1.5625C11.3281 1.5625 11.8311 2.04297 12.3154 2.50879C12.7998 2.97461 13.3086 3.46094 13.9287 3.71777C14.5244 3.96387 15.2051 3.97461 15.8643 3.98437C16.5479 3.99414 17.2637 4.00488 17.5664 4.30859C17.8691 4.6123 17.8809 5.32324 17.8906 6.01074C17.9004 6.66992 17.9111 7.35059 18.1572 7.94629C18.4141 8.56641 18.8984 9.07129 19.3662 9.55957C19.834 10.0479 20.3125 10.5469 20.3125 10.9375C20.3125 11.3281 19.832 11.8311 19.3662 12.3154ZM15.3965 8.04102C15.4691 8.11357 15.5267 8.19974 15.5661 8.29458C15.6054 8.38942 15.6256 8.49108 15.6256 8.59375C15.6256 8.69642 15.6054 8.79808 15.5661 8.89292C15.5267 8.98776 15.4691 9.07393 15.3965 9.14648L9.92773 14.6152C9.85518 14.6879 9.76901 14.7455 9.67417 14.7848C9.57933 14.8241 9.47767 14.8444 9.375 14.8444C9.27233 14.8444 9.17067 14.8241 9.07583 14.7848C8.98099 14.7455 8.89482 14.6879 8.82227 14.6152L6.47852 12.2715C6.33192 12.1249 6.24957 11.9261 6.24957 11.7188C6.24957 11.5114 6.33192 11.3126 6.47852 11.166C6.62511 11.0194 6.82393 10.9371 7.03125 10.9371C7.23857 10.9371 7.43739 11.0194 7.58398 11.166L9.375 12.958L14.291 8.04102C14.3636 7.96838 14.4497 7.91075 14.5446 7.87144C14.6394 7.83212 14.7411 7.81189 14.8438 7.81189C14.9464 7.81189 15.0481 7.83212 15.1429 7.87144C15.2378 7.91075 15.3239 7.96838 15.3965 8.04102Z" fill="white"/>
</svg>
