<svg width="17" height="17" viewBox="0 0 17 17" fill="none" xmlns="http://www.w3.org/2000/svg">
<path d="M3.54167 3.54167H7.79167C8.18125 3.54167 8.5 3.22292 8.5 2.83333C8.5 2.44375 8.18125 2.125 7.79167 2.125H3.54167C2.7625 2.125 2.125 2.7625 2.125 3.54167V13.4583C2.125 14.2375 2.7625 14.875 3.54167 14.875H7.79167C8.18125 14.875 8.5 14.5562 8.5 14.1667C8.5 13.7771 8.18125 13.4583 7.79167 13.4583H3.54167V3.54167Z" fill="#A30000"/>
<path d="M14.6271 8.25156L12.6508 6.27531C12.6016 6.2247 12.5383 6.18994 12.4692 6.17549C12.4001 6.16103 12.3282 6.16752 12.2628 6.19415C12.1974 6.22077 12.1414 6.26631 12.102 6.32493C12.0626 6.38356 12.0416 6.4526 12.0417 6.52323V7.79115H7.08333C6.69375 7.79115 6.375 8.1099 6.375 8.49948C6.375 8.88906 6.69375 9.20781 7.08333 9.20781H12.0417V10.4757C12.0417 10.7945 12.4242 10.9503 12.6438 10.7236L14.62 8.7474C14.7617 8.61281 14.7617 8.38615 14.6271 8.25156Z" fill="#A30000"/>
</svg>
