<svg width="19" height="20" viewBox="0 0 19 20" fill="none" xmlns="http://www.w3.org/2000/svg">
<path d="M3.94679 8.42028H5.52549C7.1042 8.42028 7.89355 7.63093 7.89355 6.05223V4.47352C7.89355 2.89482 7.1042 2.10547 5.52549 2.10547H3.94679C2.36809 2.10547 1.57874 2.89482 1.57874 4.47352V6.05223C1.57874 7.63093 2.36809 8.42028 3.94679 8.42028Z" stroke="white" stroke-width="1.72222" stroke-miterlimit="10" stroke-linecap="round" stroke-linejoin="round"/>
<path d="M13.419 8.42028H14.9977C16.5764 8.42028 17.3657 7.63093 17.3657 6.05223V4.47352C17.3657 2.89482 16.5764 2.10547 14.9977 2.10547H13.419C11.8403 2.10547 11.0509 2.89482 11.0509 4.47352V6.05223C11.0509 7.63093 11.8403 8.42028 13.419 8.42028Z" stroke="white" stroke-width="1.72222" stroke-miterlimit="10" stroke-linecap="round" stroke-linejoin="round"/>
<path d="M13.419 17.8929H14.9977C16.5764 17.8929 17.3657 17.1036 17.3657 15.5249V13.9462C17.3657 12.3675 16.5764 11.5781 14.9977 11.5781H13.419C11.8403 11.5781 11.0509 12.3675 11.0509 13.9462V15.5249C11.0509 17.1036 11.8403 17.8929 13.419 17.8929Z" stroke="white" stroke-width="1.72222" stroke-miterlimit="10" stroke-linecap="round" stroke-linejoin="round"/>
<path d="M3.94679 17.8929H5.52549C7.1042 17.8929 7.89355 17.1036 7.89355 15.5249V13.9462C7.89355 12.3675 7.1042 11.5781 5.52549 11.5781H3.94679C2.36809 11.5781 1.57874 12.3675 1.57874 13.9462V15.5249C1.57874 17.1036 2.36809 17.8929 3.94679 17.8929Z" stroke="white" stroke-width="1.72222" stroke-miterlimit="10" stroke-linecap="round" stroke-linejoin="round"/>
</svg>
