<svg width="20" height="17" viewBox="0 0 20 17" fill="none" xmlns="http://www.w3.org/2000/svg">
<path d="M9.08301 15.8034H8.62467C5.17892 15.8034 3.45651 15.8034 2.30609 14.8959C2.12327 14.7511 1.95336 14.5907 1.79826 14.4165C0.833008 13.3348 0.833008 11.7123 0.833008 8.47005C0.833008 5.2278 0.833008 3.60622 1.79826 2.52364C1.95287 2.35008 2.12215 2.19058 2.30609 2.04514C3.45651 1.13672 5.17892 1.13672 8.62467 1.13672H11.3747C14.8204 1.13672 16.5428 1.13672 17.6923 2.04422C17.8769 2.19089 18.0465 2.35069 18.2011 2.52364C19.071 3.49897 19.1572 4.91155 19.1663 7.55339M0.833008 5.72005H19.1663M11.833 13.9701C11.833 13.9701 12.7497 13.9701 13.6663 15.8034C13.6663 15.8034 16.5786 11.2201 19.1663 10.3034" stroke="white" stroke-width="1.5" stroke-linecap="round" stroke-linejoin="round"/>
</svg>
