<svg width="270" height="116" viewBox="0 0 270 116" fill="none" xmlns="http://www.w3.org/2000/svg">
<rect width="270" height="116" rx="10" fill="url(#paint0_linear_771_1741)"/>
<path d="M189.5 43.0423V62.7923M189.5 89.1257C172.259 89.1257 163.638 89.1257 158.654 85.9824C154.308 83.2407 151.505 79.0266 150.943 74.3877C150.3 69.0693 154.61 62.5881 163.231 49.6257C171.851 36.6632 176.162 30.182 181.789 28.0069C186.697 26.1097 192.303 26.1097 197.211 28.0069C202.838 30.182 207.149 36.6632 215.769 49.6257C224.39 62.5881 228.7 69.0693 228.057 74.3877C227.495 79.0266 224.692 83.2407 220.346 85.9824C215.362 89.1257 206.741 89.1257 189.5 89.1257Z" stroke="url(#paint1_linear_771_1741)" stroke-opacity="0.8" stroke-width="5" stroke-linecap="round"/>
<path d="M193.292 72.6667C193.292 74.4846 191.594 75.9583 189.5 75.9583C187.406 75.9583 185.708 74.4846 185.708 72.6667C185.708 70.8487 187.406 69.375 189.5 69.375C191.594 69.375 193.292 70.8487 193.292 72.6667Z" fill="url(#paint2_linear_771_1741)" fill-opacity="0.8"/>
<defs>
<linearGradient id="paint0_linear_771_1741" x1="192.77" y1="13.1321" x2="144.114" y2="120.144" gradientUnits="userSpaceOnUse">
<stop/>
<stop offset="1" stop-color="#004E75"/>
</linearGradient>
<linearGradient id="paint1_linear_771_1741" x1="189.5" y1="26.584" x2="189.5" y2="89.1257" gradientUnits="userSpaceOnUse">
<stop stop-color="white"/>
<stop offset="1" stop-color="white" stop-opacity="0"/>
</linearGradient>
<linearGradient id="paint2_linear_771_1741" x1="189.5" y1="69.375" x2="189.5" y2="75.9583" gradientUnits="userSpaceOnUse">
<stop stop-color="white"/>
<stop offset="1" stop-color="white" stop-opacity="0"/>
</linearGradient>
</defs>
</svg>
