<svg width="577" height="832" viewBox="0 0 577 832" fill="none" xmlns="http://www.w3.org/2000/svg">
<path fill-rule="evenodd" clip-rule="evenodd" d="M299.1 66C299.1 46.67 305.934 30.1709 319.602 16.5025C333.27 2.83417 349.77 -4 369.1 -4C388.43 -4 404.929 2.83417 418.597 16.5025C432.265 30.1709 439.1 46.67 439.1 66C439.1 85.33 432.265 101.829 418.597 115.497C404.929 129.166 388.43 136 369.1 136C349.77 136 333.27 129.166 319.602 115.497C305.934 101.829 299.1 85.33 299.1 66Z" fill="#E8E8E8"/>
<path fill-rule="evenodd" clip-rule="evenodd" d="M299.1 487C299.1 467.67 305.934 451.171 319.602 437.503C333.27 423.834 349.77 417 369.1 417C388.43 417 404.929 423.834 418.597 437.503C432.265 451.171 439.1 467.67 439.1 487C439.1 506.33 432.265 522.829 418.597 536.497C404.929 550.166 388.43 557 369.1 557C349.77 557 333.27 550.166 319.602 536.497C305.934 522.829 299.1 506.33 299.1 487Z" fill="#E8E8E8"/>
<path fill-rule="evenodd" clip-rule="evenodd" d="M509.1 -4H579.1V136H439.1V66C439.1 27.3401 470.44 -4 509.1 -4Z" fill="black"/>
<path fill-rule="evenodd" clip-rule="evenodd" d="M509.1 417H579.1V557H439.1V487C439.1 448.34 470.44 417 509.1 417Z" fill="black"/>
<path fill-rule="evenodd" clip-rule="evenodd" d="M508.1 276C546.76 276 578.1 307.34 578.1 346V416H438.1V346C438.1 307.34 469.44 276 508.1 276Z" fill="#6B6B6B"/>
<path fill-rule="evenodd" clip-rule="evenodd" d="M508.1 697C546.76 697 578.1 728.34 578.1 767V837H438.1V767C438.1 728.34 469.44 697 508.1 697Z" fill="#6B6B6B"/>
<path fill-rule="evenodd" clip-rule="evenodd" d="M298.1 276H368.1C406.76 276 438.1 307.34 438.1 346V416H368.1C329.44 416 298.1 384.66 298.1 346V276Z" fill="black"/>
<path fill-rule="evenodd" clip-rule="evenodd" d="M298.1 697H368.1C406.76 697 438.1 728.34 438.1 767V837H368.1C329.44 837 298.1 805.66 298.1 767V697Z" fill="black"/>
<path fill-rule="evenodd" clip-rule="evenodd" d="M439.1 136H579.1V276H509.1C470.44 276 439.1 244.66 439.1 206V136Z" fill="#E8E8E8"/>
<path fill-rule="evenodd" clip-rule="evenodd" d="M439.1 557H579.1V697H509.1C470.44 697 439.1 665.66 439.1 627V557Z" fill="#E8E8E8"/>
<path fill-rule="evenodd" clip-rule="evenodd" d="M299.1 136H439.1V206C439.1 244.66 407.76 276 369.1 276H299.1V136Z" fill="#6B6B6B"/>
<path fill-rule="evenodd" clip-rule="evenodd" d="M299.1 557H439.1V627C439.1 665.66 407.76 697 369.1 697H299.1V557Z" fill="#6B6B6B"/>
<path fill-rule="evenodd" clip-rule="evenodd" d="M140.1 66C140.1 46.67 146.934 30.1709 160.602 16.5025C174.27 2.83417 190.77 -4 210.1 -4C229.43 -4 245.929 2.83417 259.597 16.5025C273.265 30.1709 280.1 46.67 280.1 66C280.1 85.33 273.265 101.829 259.597 115.497C245.929 129.166 229.43 136 210.1 136C190.77 136 174.27 129.166 160.602 115.497C146.934 101.829 140.1 85.33 140.1 66Z" fill="#E8E8E8"/>
<path fill-rule="evenodd" clip-rule="evenodd" d="M140.1 487C140.1 467.67 146.934 451.171 160.602 437.503C174.27 423.834 190.77 417 210.1 417C229.43 417 245.929 423.834 259.597 437.503C273.265 451.171 280.1 467.67 280.1 487C280.1 506.33 273.265 522.829 259.597 536.497C245.929 550.166 229.43 557 210.1 557C190.77 557 174.27 550.166 160.602 536.497C146.934 522.829 140.1 506.33 140.1 487Z" fill="#E8E8E8"/>
<path fill-rule="evenodd" clip-rule="evenodd" d="M0.0996094 -4H70.0996C108.76 -4 140.1 27.3401 140.1 66V136H0.0996094V-4Z" fill="black"/>
<path fill-rule="evenodd" clip-rule="evenodd" d="M0.0996094 417H70.0996C108.76 417 140.1 448.34 140.1 487V557H0.0996094V417Z" fill="black"/>
<path fill-rule="evenodd" clip-rule="evenodd" d="M71.0996 276C109.76 276 141.1 307.34 141.1 346V416H1.09961V346C1.0996 307.34 32.4397 276 71.0996 276Z" fill="#6B6B6B"/>
<path fill-rule="evenodd" clip-rule="evenodd" d="M71.0996 697C109.76 697 141.1 728.34 141.1 767V837H1.09961V767C1.0996 728.34 32.4397 697 71.0996 697Z" fill="#6B6B6B"/>
<path fill-rule="evenodd" clip-rule="evenodd" d="M211.1 276H281.1V346C281.1 384.66 249.76 416 211.1 416H141.1V346C141.1 307.34 172.44 276 211.1 276Z" fill="black"/>
<path fill-rule="evenodd" clip-rule="evenodd" d="M211.1 697H281.1V767C281.1 805.66 249.76 837 211.1 837H141.1V767C141.1 728.34 172.44 697 211.1 697Z" fill="black"/>
<path fill-rule="evenodd" clip-rule="evenodd" d="M0.0996094 136H140.1V206C140.1 244.66 108.76 276 70.0996 276H0.0996094V136Z" fill="#E8E8E8"/>
<path fill-rule="evenodd" clip-rule="evenodd" d="M0.0996094 557H140.1V627C140.1 665.66 108.76 697 70.0996 697H0.0996094V557Z" fill="#E8E8E8"/>
<path fill-rule="evenodd" clip-rule="evenodd" d="M140.1 136H280.1V276H210.1C171.44 276 140.1 244.66 140.1 206V136Z" fill="#6B6B6B"/>
<path fill-rule="evenodd" clip-rule="evenodd" d="M140.1 557H280.1V697H210.1C171.44 697 140.1 665.66 140.1 627V557Z" fill="#6B6B6B"/>
</svg>
