<svg width="85" height="54" viewBox="0 0 85 54" fill="none" xmlns="http://www.w3.org/2000/svg">
<rect width="85" height="54" fill="black"/>
<path d="M19.5545 31.36H24.0345V34H16.1345V19.96H19.5545V31.36ZM32.3058 34.14C30.9858 34.14 29.7724 33.8333 28.6658 33.22C27.5724 32.6067 26.6991 31.7533 26.0458 30.66C25.4058 29.5533 25.0858 28.3133 25.0858 26.94C25.0858 25.5667 25.4058 24.3333 26.0458 23.24C26.6991 22.1467 27.5724 21.2933 28.6658 20.68C29.7724 20.0667 30.9858 19.76 32.3058 19.76C33.6258 19.76 34.8324 20.0667 35.9258 20.68C37.0324 21.2933 37.8991 22.1467 38.5258 23.24C39.1658 24.3333 39.4858 25.5667 39.4858 26.94C39.4858 28.3133 39.1658 29.5533 38.5258 30.66C37.8858 31.7533 37.0191 32.6067 35.9258 33.22C34.8324 33.8333 33.6258 34.14 32.3058 34.14ZM32.3058 31.02C33.4258 31.02 34.3191 30.6467 34.9858 29.9C35.6658 29.1533 36.0058 28.1667 36.0058 26.94C36.0058 25.7 35.6658 24.7133 34.9858 23.98C34.3191 23.2333 33.4258 22.86 32.3058 22.86C31.1724 22.86 30.2658 23.2267 29.5858 23.96C28.9191 24.6933 28.5858 25.6867 28.5858 26.94C28.5858 28.18 28.9191 29.1733 29.5858 29.92C30.2658 30.6533 31.1724 31.02 32.3058 31.02ZM50.7084 24.4C50.4551 23.9333 50.0884 23.58 49.6084 23.34C49.1418 23.0867 48.5884 22.96 47.9484 22.96C46.8418 22.96 45.9551 23.3267 45.2884 24.06C44.6218 24.78 44.2884 25.7467 44.2884 26.96C44.2884 28.2533 44.6351 29.2667 45.3284 30C46.0351 30.72 47.0018 31.08 48.2284 31.08C49.0684 31.08 49.7751 30.8667 50.3484 30.44C50.9351 30.0133 51.3618 29.4 51.6284 28.6H47.2884V26.08H54.7284V29.26C54.4751 30.1133 54.0418 30.9067 53.4284 31.64C52.8284 32.3733 52.0618 32.9667 51.1284 33.42C50.1951 33.8733 49.1418 34.1 47.9684 34.1C46.5818 34.1 45.3418 33.8 44.2484 33.2C43.1684 32.5867 42.3218 31.74 41.7084 30.66C41.1084 29.58 40.8084 28.3467 40.8084 26.96C40.8084 25.5733 41.1084 24.34 41.7084 23.26C42.3218 22.1667 43.1684 21.32 44.2484 20.72C45.3284 20.1067 46.5618 19.8 47.9484 19.8C49.6284 19.8 51.0418 20.2067 52.1884 21.02C53.3484 21.8333 54.1151 22.96 54.4884 24.4H50.7084ZM63.2628 34.14C61.9428 34.14 60.7295 33.8333 59.6228 33.22C58.5295 32.6067 57.6561 31.7533 57.0028 30.66C56.3628 29.5533 56.0428 28.3133 56.0428 26.94C56.0428 25.5667 56.3628 24.3333 57.0028 23.24C57.6561 22.1467 58.5295 21.2933 59.6228 20.68C60.7295 20.0667 61.9428 19.76 63.2628 19.76C64.5828 19.76 65.7895 20.0667 66.8828 20.68C67.9895 21.2933 68.8561 22.1467 69.4828 23.24C70.1228 24.3333 70.4428 25.5667 70.4428 26.94C70.4428 28.3133 70.1228 29.5533 69.4828 30.66C68.8428 31.7533 67.9761 32.6067 66.8828 33.22C65.7895 33.8333 64.5828 34.14 63.2628 34.14ZM63.2628 31.02C64.3828 31.02 65.2761 30.6467 65.9428 29.9C66.6228 29.1533 66.9628 28.1667 66.9628 26.94C66.9628 25.7 66.6228 24.7133 65.9428 23.98C65.2761 23.2333 64.3828 22.86 63.2628 22.86C62.1295 22.86 61.2228 23.2267 60.5428 23.96C59.8761 24.6933 59.5428 25.6867 59.5428 26.94C59.5428 28.18 59.8761 29.1733 60.5428 29.92C61.2228 30.6533 62.1295 31.02 63.2628 31.02Z" fill="white"/>
</svg>
