<svg width="18" height="20" viewBox="0 0 18 20" fill="none" xmlns="http://www.w3.org/2000/svg">
<g clip-path="url(#clip0_687_1750)">
<path d="M1.96875 0.138672H16.0312C17.118 0.138672 18 1.06967 18 2.2168V17.0605C18 17.6117 17.7926 18.1403 17.4234 18.53C17.0542 18.9197 16.5534 19.1387 16.0312 19.1387H1.96875C1.44661 19.1387 0.945846 18.9197 0.576633 18.53C0.207421 18.1403 0 17.6117 0 17.0605L0 2.2168C0 1.06967 0.882 0.138672 1.96875 0.138672ZM1.6875 2.2168V17.0605C1.6875 17.2244 1.8135 17.3574 1.96875 17.3574H16.0312C16.1058 17.3574 16.1774 17.3261 16.2301 17.2705C16.2829 17.2148 16.3125 17.1393 16.3125 17.0605V2.2168C16.3125 2.13806 16.2829 2.06255 16.2301 2.00687C16.1774 1.9512 16.1058 1.91992 16.0312 1.91992H1.96875C1.89416 1.91992 1.82262 1.9512 1.76988 2.00687C1.71713 2.06255 1.6875 2.13806 1.6875 2.2168ZM13.2188 3.70117C13.4425 3.70117 13.6571 3.79501 13.8154 3.96203C13.9736 4.12905 14.0625 4.35559 14.0625 4.5918V13.498C14.0625 13.7343 13.9736 13.9608 13.8154 14.1278C13.6571 14.2948 13.4425 14.3887 13.2188 14.3887C12.995 14.3887 12.7804 14.2948 12.6221 14.1278C12.4639 13.9608 12.375 13.7343 12.375 13.498V4.5918C12.375 4.35559 12.4639 4.12905 12.6221 3.96203C12.7804 3.79501 12.995 3.70117 13.2188 3.70117ZM3.9375 4.5918C3.9375 4.35559 4.02639 4.12905 4.18463 3.96203C4.34286 3.79501 4.55747 3.70117 4.78125 3.70117C5.00503 3.70117 5.21964 3.79501 5.37787 3.96203C5.53611 4.12905 5.625 4.35559 5.625 4.5918V11.123C5.625 11.3593 5.53611 11.5858 5.37787 11.7528C5.21964 11.9198 5.00503 12.0137 4.78125 12.0137C4.55747 12.0137 4.34286 11.9198 4.18463 11.7528C4.02639 11.5858 3.9375 11.3593 3.9375 11.123V4.5918ZM9 3.70117C9.22378 3.70117 9.43839 3.79501 9.59662 3.96203C9.75485 4.12905 9.84375 4.35559 9.84375 4.5918V8.74805C9.84375 8.98426 9.75485 9.21079 9.59662 9.37781C9.43839 9.54484 9.22378 9.63867 9 9.63867C8.77622 9.63867 8.56161 9.54484 8.40338 9.37781C8.24514 9.21079 8.15625 8.98426 8.15625 8.74805V4.5918C8.15625 4.35559 8.24514 4.12905 8.40338 3.96203C8.56161 3.79501 8.77622 3.70117 9 3.70117Z" fill="white"/>
</g>
<defs>
<clipPath id="clip0_687_1750">
<rect width="18" height="19" fill="white" transform="translate(0 0.138672)"/>
</clipPath>
</defs>
</svg>
