<svg width="20" height="21" viewBox="0 0 20 21" fill="none" xmlns="http://www.w3.org/2000/svg">
<path d="M17.2178 7.21579L17.1005 7.95655H17.1005L17.2178 7.21579ZM13.0616 3.05952L12.3208 3.17684V3.17684L13.0616 3.05952ZM3.06107 18.3224L3.50191 17.7157L3.06107 18.3224ZM1.95491 17.2163L2.56168 16.7754L1.95491 17.2163ZM18.0451 17.2163L17.4383 16.7754L18.0451 17.2163ZM16.9389 18.3224L16.4981 17.7157L16.9389 18.3224ZM16.9389 2.23226L17.3798 1.6255L16.9389 2.23226ZM18.0451 3.33842L18.6518 2.89758L18.0451 3.33842ZM3.06107 2.23226L3.50191 2.83902L3.06107 2.23226ZM1.95491 3.33842L2.56168 3.77926L1.95491 3.33842ZM13 1.30627L13.0257 0.556712L13 1.30627ZM18.9711 7.27734L19.7206 7.25166L18.9711 7.27734ZM6 10.5273C5.58579 10.5273 5.25 10.8631 5.25 11.2773C5.25 11.6916 5.58579 12.0273 6 12.0273V10.5273ZM12 12.0273C12.4142 12.0273 12.75 11.6916 12.75 11.2773C12.75 10.8631 12.4142 10.5273 12 10.5273V12.0273ZM8.25 14.2773C8.25 14.6916 8.58579 15.0273 9 15.0273C9.41421 15.0273 9.75 14.6916 9.75 14.2773H8.25ZM9.75 8.27734C9.75 7.86313 9.41421 7.52734 9 7.52734C8.58579 7.52734 8.25 7.86313 8.25 8.27734H9.75ZM17.3352 6.47502C15.5166 6.18699 14.0904 4.76073 13.8023 2.94219L12.3208 3.17684C12.7105 5.63722 14.6401 7.56687 17.1005 7.95655L17.3352 6.47502ZM10 18.5273C8.10843 18.5273 6.74999 18.5263 5.69804 18.4123C4.66013 18.2999 4.00992 18.0848 3.50191 17.7157L2.62023 18.9292C3.42656 19.515 4.37094 19.7773 5.53648 19.9036C6.68798 20.0284 8.14184 20.0273 10 20.0273V18.5273ZM0.25 10.2773C0.25 12.1355 0.248971 13.5894 0.373728 14.7409C0.500006 15.9064 0.762324 16.8508 1.34815 17.6571L2.56168 16.7754C2.19259 16.2674 1.97745 15.6172 1.865 14.5793C1.75103 13.5274 1.75 12.1689 1.75 10.2773H0.25ZM3.50191 17.7157C3.14111 17.4535 2.82382 17.1362 2.56168 16.7754L1.34815 17.6571C1.70281 18.1453 2.13209 18.5745 2.62023 18.9292L3.50191 17.7157ZM18.25 10.2773C18.25 12.1689 18.249 13.5274 18.135 14.5793C18.0225 15.6172 17.8074 16.2674 17.4383 16.7754L18.6518 17.6571C19.2377 16.8508 19.5 15.9064 19.6263 14.7409C19.751 13.5894 19.75 12.1355 19.75 10.2773H18.25ZM10 20.0273C11.8582 20.0273 13.312 20.0284 14.4635 19.9036C15.6291 19.7773 16.5734 19.515 17.3798 18.9292L16.4981 17.7157C15.9901 18.0848 15.3399 18.2999 14.302 18.4123C13.25 18.5263 11.8916 18.5273 10 18.5273V20.0273ZM17.4383 16.7754C17.1762 17.1362 16.8589 17.4535 16.4981 17.7157L17.3798 18.9292C17.8679 18.5745 18.2972 18.1453 18.6518 17.6571L17.4383 16.7754ZM16.4981 2.83902C16.8589 3.10116 17.1762 3.41845 17.4383 3.77926L18.6518 2.89758C18.2972 2.40943 17.8679 1.98015 17.3798 1.6255L16.4981 2.83902ZM10 0.527344C8.14184 0.527344 6.68798 0.526314 5.53648 0.651072C4.37094 0.77735 3.42656 1.03967 2.62023 1.6255L3.50191 2.83902C4.00992 2.46993 4.66013 2.2548 5.69804 2.14234C6.74999 2.02837 8.10843 2.02734 10 2.02734V0.527344ZM1.75 10.2773C1.75 8.38577 1.75103 7.02734 1.865 5.97539C1.97745 4.93748 2.19259 4.28726 2.56168 3.77926L1.34815 2.89758C0.762324 3.7039 0.500006 4.64828 0.373728 5.81382C0.248971 6.96532 0.25 8.41918 0.25 10.2773H1.75ZM2.62023 1.6255C2.13209 1.98015 1.70281 2.40943 1.34815 2.89758L2.56168 3.77926C2.82382 3.41845 3.14111 3.10116 3.50191 2.83902L2.62023 1.6255ZM10 2.02734C11.1731 2.02734 12.1456 2.02744 12.9743 2.05583L13.0257 0.556712C12.1658 0.52725 11.1648 0.527344 10 0.527344V2.02734ZM12.9743 2.05583C14.8292 2.11938 15.7925 2.32641 16.4981 2.83902L17.3798 1.6255C16.2761 0.82364 14.8991 0.620899 13.0257 0.556712L12.9743 2.05583ZM12.25 1.30628C12.25 2.18855 12.2484 2.71949 12.3208 3.17684L13.8023 2.94219C13.7529 2.63033 13.75 2.24352 13.75 1.30627L12.25 1.30628ZM19.75 10.2773C19.75 9.11257 19.7501 8.11159 19.7206 7.25166L18.2215 7.30302C18.2499 8.13179 18.25 9.10427 18.25 10.2773H19.75ZM19.7206 7.25166C19.6564 5.37822 19.4537 4.00124 18.6518 2.89758L17.4383 3.77926C17.9509 4.48481 18.158 5.4481 18.2215 7.30302L19.7206 7.25166ZM18.9711 6.52734C18.0338 6.52734 17.647 6.52441 17.3352 6.47502L17.1005 7.95655C17.5579 8.02899 18.0888 8.02734 18.9711 8.02734L18.9711 6.52734ZM6 12.0273H12V10.5273H6V12.0273ZM9.75 14.2773L9.75 8.27734H8.25L8.25 14.2773H9.75Z" fill="white"/>
</svg>
