<svg width="21" height="21" viewBox="0 0 21 21" fill="none" xmlns="http://www.w3.org/2000/svg">
<path d="M10.5 2.06175C15.1838 2.06175 18.9808 5.6779 18.9808 10.1387C18.9808 14.5994 15.1838 18.2156 10.5 18.2156C5.81619 18.2156 2.01923 14.5994 2.01923 10.1387C2.01923 9.96431 2.02488 9.79149 2.03619 9.62021C2.05101 9.36679 1.96001 9.11807 1.78305 8.92829C1.60609 8.73851 1.35752 8.62306 1.09154 8.60712C0.825566 8.59118 0.56376 8.67604 0.363215 8.8432C0.162671 9.01036 0.0396574 9.24625 0.021 9.49944C0.00700002 9.71124 0 9.92431 0 10.1387C0 15.6617 4.70077 20.1387 10.5 20.1387C16.2992 20.1387 21 15.6617 21 10.1387C21 4.6156 16.2992 0.138672 10.5 0.138672C7.875 0.138672 5.47454 1.05636 3.63462 2.57252V1.10021C3.63462 0.845194 3.52825 0.600623 3.33891 0.4203C3.14957 0.239977 2.89277 0.138672 2.625 0.138672C2.35723 0.138672 2.10043 0.239977 1.91109 0.4203C1.72175 0.600623 1.61538 0.845194 1.61538 1.10021V4.94636C1.61538 5.47713 2.06769 5.9079 2.625 5.9079H6.66346C6.93123 5.9079 7.18803 5.8066 7.37737 5.62627C7.56671 5.44595 7.67308 5.20138 7.67308 4.94636C7.67308 4.69135 7.56671 4.44678 7.37737 4.26645C7.18803 4.08613 6.93123 3.98483 6.66346 3.98483H5.00689C6.53887 2.74098 8.48687 2.059 10.5 2.06175ZM11.3077 4.94636C11.3077 4.69135 11.2013 4.44678 11.012 4.26645C10.8226 4.08613 10.5658 3.98483 10.2981 3.98483C10.0303 3.98483 9.77351 4.08613 9.58417 4.26645C9.39483 4.44678 9.28846 4.69135 9.28846 4.94636V10.331C9.28846 10.8617 9.74077 11.2925 10.2981 11.2925H14.3365C14.6043 11.2925 14.8611 11.1912 15.0504 11.0109C15.2398 10.8306 15.3462 10.586 15.3462 10.331C15.3462 10.076 15.2398 9.83139 15.0504 9.65107C14.8611 9.47075 14.6043 9.36944 14.3365 9.36944H11.3077V4.94636Z" fill="#F8F9FA"/>
</svg>
