<svg width="15" height="12" viewBox="0 0 15 12" fill="none" xmlns="http://www.w3.org/2000/svg">
<path d="M5 3.5C5 3.91667 4.85417 4.27083 4.5625 4.5625C4.27083 4.85417 3.91667 5 3.5 5C3.08333 5 2.72917 4.85417 2.4375 4.5625C2.14583 4.27083 2 3.91667 2 3.5C2 3.08333 2.14583 2.72917 2.4375 2.4375C2.72917 2.14583 3.08333 2 3.5 2C3.91667 2 4.27083 2.14583 4.5625 2.4375C4.85417 2.72917 5 3.08333 5 3.5ZM13 6.5V10H2V8.5L4.5 6L5.75 7.25L9.75 3.25L13 6.5ZM13.75 1H1.25C1.18229 1 1.1237 1.02474 1.07422 1.07422C1.02474 1.1237 1 1.18229 1 1.25V10.75C1 10.8177 1.02474 10.8763 1.07422 10.9258C1.1237 10.9753 1.18229 11 1.25 11H13.75C13.8177 11 13.8763 10.9753 13.9258 10.9258C13.9753 10.8763 14 10.8177 14 10.75V1.25C14 1.18229 13.9753 1.1237 13.9258 1.07422C13.8763 1.02474 13.8177 1 13.75 1ZM15 1.25V10.75C15 11.0938 14.8776 11.388 14.6328 11.6328C14.388 11.8776 14.0938 12 13.75 12H1.25C0.90625 12 0.611979 11.8776 0.367188 11.6328C0.122396 11.388 0 11.0938 0 10.75V1.25C0 0.90625 0.122396 0.611979 0.367188 0.367188C0.611979 0.122396 0.90625 0 1.25 0H13.75C14.0938 0 14.388 0.122396 14.6328 0.367188C14.8776 0.611979 15 0.90625 15 1.25Z" fill="white"/>
</svg>
